<svg width="164" height="172" viewBox="0 0 164 172" fill="none" xmlns="http://www.w3.org/2000/svg">
<mask id="path-1-inside-1_27_20" fill="white">
<path d="M4 74C4 33.1309 37.1309 0 78 0C118.869 0 152 33.1309 152 74C152 114.869 118.869 148 78 148C37.1309 148 4 114.869 4 74Z"/>
</mask>
<g clip-path="url(#paint0_diamond_27_20_clip_path)" data-figma-skip-parse="true" mask="url(#path-1-inside-1_27_20)"><g transform="matrix(0.074 0 0 0.074 78 0)"><rect x="0" y="0" width="1040.54" height="2040.54" fill="url(#paint0_diamond_27_20)" opacity="1" shape-rendering="crispEdges"/><rect x="0" y="0" width="1040.54" height="2040.54" transform="scale(1 -1)" fill="url(#paint0_diamond_27_20)" opacity="1" shape-rendering="crispEdges"/><rect x="0" y="0" width="1040.54" height="2040.54" transform="scale(-1 1)" fill="url(#paint0_diamond_27_20)" opacity="1" shape-rendering="crispEdges"/><rect x="0" y="0" width="1040.54" height="2040.54" transform="scale(-1)" fill="url(#paint0_diamond_27_20)" opacity="1" shape-rendering="crispEdges"/></g></g><path d="M4 74M152 74M152 74M4 74M78 0M152 74M78 148M4 74M78 148V145C38.7878 145 7 113.212 7 74H4H1C1 116.526 35.4741 151 78 151V148ZM152 74H149C149 113.212 117.212 145 78 145V148V151C120.526 151 155 116.526 155 74H152ZM78 0V3C117.212 3 149 34.7878 149 74H152H155C155 31.4741 120.526 -3 78 -3V0ZM78 0V-3C35.4741 -3 1 31.4741 1 74H4H7C7 34.7878 38.7878 3 78 3V0Z" data-figma-gradient-fill="{&#34;type&#34;:&#34;GRADIENT_DIAMOND&#34;,&#34;stops&#34;:[{&#34;color&#34;:{&#34;r&#34;:0.11764705926179886,&#34;g&#34;:0.43529412150382996,&#34;b&#34;:0.92156863212585449,&#34;a&#34;:1.0},&#34;position&#34;:0.99999988079071045},{&#34;color&#34;:{&#34;r&#34;:0.11764705926179886,&#34;g&#34;:0.43529412150382996,&#34;b&#34;:0.92156863212585449,&#34;a&#34;:0.11999999731779099},&#34;position&#34;:1.0}],&#34;stopsVar&#34;:[{&#34;color&#34;:{&#34;r&#34;:0.11764705926179886,&#34;g&#34;:0.43529412150382996,&#34;b&#34;:0.92156863212585449,&#34;a&#34;:1.0},&#34;position&#34;:0.99999988079071045},{&#34;color&#34;:{&#34;r&#34;:0.11764705926179886,&#34;g&#34;:0.43529412150382996,&#34;b&#34;:0.92156863212585449,&#34;a&#34;:0.11999999731779099},&#34;position&#34;:1.0}],&#34;transform&#34;:{&#34;m00&#34;:148.0,&#34;m01&#34;:0.0,&#34;m02&#34;:4.0,&#34;m10&#34;:0.0,&#34;m11&#34;:148.0,&#34;m12&#34;:-74.0},&#34;opacity&#34;:1.0,&#34;blendMode&#34;:&#34;NORMAL&#34;,&#34;visible&#34;:true}" mask="url(#path-1-inside-1_27_20)"/>
<g filter="url(#filter0_d_27_20)">
<rect x="28" y="24" width="100" height="100" rx="28" fill="#0A1F44" shape-rendering="crispEdges"/>
<rect x="56" y="52" width="44" height="44" rx="12" fill="white"/>
<rect x="56" y="67" width="44" height="14" fill="#0A1F44"/>
<rect x="104" y="100" width="30" height="30" rx="15" fill="#1E6FEB" stroke="white" stroke-width="4"/>
</g>
<defs>
<clipPath id="paint0_diamond_27_20_clip_path"><path d="M4 74M152 74M152 74M4 74M78 0M152 74M78 148M4 74M78 148V145C38.7878 145 7 113.212 7 74H4H1C1 116.526 35.4741 151 78 151V148ZM152 74H149C149 113.212 117.212 145 78 145V148V151C120.526 151 155 116.526 155 74H152ZM78 0V3C117.212 3 149 34.7878 149 74H152H155C155 31.4741 120.526 -3 78 -3V0ZM78 0V-3C35.4741 -3 1 31.4741 1 74H4H7C7 34.7878 38.7878 3 78 3V0Z"/></clipPath><filter id="filter0_d_27_20" x="0" y="8" width="164" height="164" filterUnits="userSpaceOnUse" color-interpolation-filters="sRGB">
<feFlood flood-opacity="0" result="BackgroundImageFix"/>
<feColorMatrix in="SourceAlpha" type="matrix" values="0 0 0 0 0 0 0 0 0 0 0 0 0 0 0 0 0 0 127 0" result="hardAlpha"/>
<feOffset dy="12"/>
<feGaussianBlur stdDeviation="14"/>
<feComposite in2="hardAlpha" operator="out"/>
<feColorMatrix type="matrix" values="0 0 0 0 0.0392157 0 0 0 0 0.121569 0 0 0 0 0.266667 0 0 0 0.28 0"/>
<feBlend mode="normal" in2="BackgroundImageFix" result="effect1_dropShadow_27_20"/>
<feBlend mode="normal" in="SourceGraphic" in2="effect1_dropShadow_27_20" result="shape"/>
</filter>
<linearGradient id="paint0_diamond_27_20" x1="0" y1="0" x2="500" y2="500" gradientUnits="userSpaceOnUse">
<stop offset="1" stop-color="#1E6FEB"/>
<stop offset="1" stop-color="#1E6FEB" stop-opacity="0.12"/>
</linearGradient>
</defs>
</svg>
